<mxfile host="drawio-plugin" modified="2024-01-08T23:08:52.352Z" agent="5.0 (Windows NT 6.2; Win64; x64) AppleWebKit/537.36 (KHTML, like Gecko) Chrome/104.0.5112.102 Safari/537.36" etag="pqfsneynEzZgV7C6vAnz" version="20.5.3" type="embed"><diagram id="23iRSUPoRavnBvh4doch" name="Page-1"><mxGraphModel dx="2114" dy="878" grid="1" gridSize="10" guides="1" tooltips="1" connect="1" arrows="1" fold="1" page="1" pageScale="1" pageWidth="827" pageHeight="1169" math="0" shadow="0"><root><mxCell id="0"/><mxCell id="1" parent="0"/><mxCell id="3" style="edgeStyle=orthogonalEdgeStyle;rounded=0;orthogonalLoop=1;jettySize=auto;html=1;entryX=0.5;entryY=0;entryDx=0;entryDy=0;fontColor=default;labelBackgroundColor=none;" edge="1" parent="1" source="4"><mxGeometry relative="1" as="geometry"><mxPoint x="120" y="220" as="targetPoint"/></mxGeometry></mxCell><mxCell id="4" value="Початок" style="ellipse;whiteSpace=wrap;html=1;fontColor=default;labelBackgroundColor=none;" vertex="1" parent="1"><mxGeometry x="60" y="110" width="120" height="80" as="geometry"/></mxCell><mxCell id="5" value="у кращому - 0(n+k)&lt;br&gt;у середньому - O(n)&lt;br&gt;гіршому - O(n^2)" style="text;html=1;align=center;verticalAlign=middle;resizable=0;points=[];autosize=1;strokeColor=none;fillColor=none;fontColor=default;labelBackgroundColor=none;" vertex="1" parent="1"><mxGeometry x="260" y="130" width="130" height="60" as="geometry"/></mxCell><mxCell id="6" value="&lt;div style=&quot;font-family: &amp;quot;JetBrains Mono&amp;quot;, monospace;&quot;&gt;&lt;pre&gt;кінець&lt;/pre&gt;&lt;/div&gt;" style="ellipse;whiteSpace=wrap;html=1;fontColor=default;labelBackgroundColor=none;" vertex="1" parent="1"><mxGeometry x="40" y="1350" width="170" height="80" as="geometry"/></mxCell><mxCell id="7" style="edgeStyle=orthogonalEdgeStyle;rounded=0;orthogonalLoop=1;jettySize=auto;html=1;entryX=0.5;entryY=0;entryDx=0;entryDy=0;fontColor=default;labelBackgroundColor=none;" edge="1" parent="1" source="8" target="11"><mxGeometry relative="1" as="geometry"/></mxCell><mxCell id="8" value="&lt;div style=&quot;font-family: &amp;quot;JetBrains Mono&amp;quot;, monospace;&quot;&gt;&lt;pre&gt;bucketSort(float[] arr&lt;span style=&quot;font-family: &amp;quot;JetBrains Mono&amp;quot;, monospace;&quot;&gt;, int &lt;/span&gt;&lt;span style=&quot;font-family: &amp;quot;JetBrains Mono&amp;quot;, monospace;&quot;&gt;n&lt;/span&gt;)&lt;/pre&gt;&lt;/div&gt;" style="ellipse;whiteSpace=wrap;html=1;fontColor=default;labelBackgroundColor=none;" vertex="1" parent="1"><mxGeometry x="20" y="220" width="200" height="100" as="geometry"/></mxCell><mxCell id="9" style="edgeStyle=orthogonalEdgeStyle;rounded=0;orthogonalLoop=1;jettySize=auto;html=1;entryX=0.5;entryY=0;entryDx=0;entryDy=0;fontColor=default;labelBackgroundColor=none;" edge="1" parent="1" source="11" target="13"><mxGeometry relative="1" as="geometry"/></mxCell><mxCell id="10" style="edgeStyle=orthogonalEdgeStyle;rounded=0;orthogonalLoop=1;jettySize=auto;html=1;entryX=0.5;entryY=0;entryDx=0;entryDy=0;fontColor=default;labelBackgroundColor=none;" edge="1" parent="1" source="11" target="15"><mxGeometry relative="1" as="geometry"/></mxCell><mxCell id="11" value="&lt;div style=&quot;font-family: &amp;quot;JetBrains Mono&amp;quot;, monospace;&quot;&gt;&lt;pre&gt;if (n &amp;lt;= &lt;span style=&quot;&quot;&gt;0)&lt;/span&gt;&lt;br&gt;&lt;/pre&gt;&lt;/div&gt;" style="rhombus;whiteSpace=wrap;html=1;fontColor=default;labelBackgroundColor=none;" vertex="1" parent="1"><mxGeometry x="30" y="350" width="180" height="120" as="geometry"/></mxCell><mxCell id="12" style="edgeStyle=orthogonalEdgeStyle;rounded=0;orthogonalLoop=1;jettySize=auto;html=1;entryX=0;entryY=0.5;entryDx=0;entryDy=0;fontColor=default;labelBackgroundColor=none;" edge="1" parent="1" source="13" target="6"><mxGeometry relative="1" as="geometry"><mxPoint x="-430" y="1030.0000000000002" as="targetPoint"/><Array as="points"><mxPoint x="-450" y="480"/><mxPoint x="-450" y="1390"/></Array></mxGeometry></mxCell><mxCell id="13" value="&lt;pre style=&quot;border-color: var(--border-color);&quot;&gt;return;&lt;/pre&gt;" style="whiteSpace=wrap;html=1;fontColor=default;labelBackgroundColor=none;" vertex="1" parent="1"><mxGeometry x="-230" y="450" width="120" height="60" as="geometry"/></mxCell><mxCell id="14" style="edgeStyle=orthogonalEdgeStyle;rounded=0;orthogonalLoop=1;jettySize=auto;html=1;entryX=0.5;entryY=0;entryDx=0;entryDy=0;fontColor=default;labelBackgroundColor=none;" edge="1" parent="1" source="15" target="24"><mxGeometry relative="1" as="geometry"/></mxCell><mxCell id="15" value="&lt;div style=&quot;font-family: &amp;quot;JetBrains Mono&amp;quot;, monospace;&quot;&gt;&lt;pre&gt;@SuppressWarnings(&lt;span style=&quot;&quot;&gt;&quot;unchecked&quot;&lt;/span&gt;)&lt;br&gt;ArrayList&amp;lt;Float&amp;gt;[] bucket = &lt;span style=&quot;&quot;&gt;new &lt;/span&gt;ArrayList[n]&lt;span style=&quot;&quot;&gt;;&lt;/span&gt;&lt;/pre&gt;&lt;/div&gt;" style="whiteSpace=wrap;html=1;fontColor=default;labelBackgroundColor=none;" vertex="1" parent="1"><mxGeometry x="-35" y="510" width="310" height="90" as="geometry"/></mxCell><mxCell id="16" style="edgeStyle=orthogonalEdgeStyle;rounded=0;orthogonalLoop=1;jettySize=auto;html=1;entryX=0;entryY=0.25;entryDx=0;entryDy=0;exitX=0.481;exitY=0.007;exitDx=0;exitDy=0;exitPerimeter=0;fontColor=default;labelBackgroundColor=none;" edge="1" parent="1" source="17" target="24"><mxGeometry relative="1" as="geometry"/></mxCell><mxCell id="17" value="&lt;div style=&quot;font-family: &amp;quot;JetBrains Mono&amp;quot;, monospace;&quot;&gt;&lt;pre&gt;&lt;div style=&quot;font-family: &amp;quot;JetBrains Mono&amp;quot;, monospace;&quot;&gt;&lt;pre&gt;    bucket[i] = &lt;span style=&quot;&quot;&gt;new &lt;/span&gt;ArrayList&amp;lt;&amp;gt;()&lt;span style=&quot;&quot;&gt;;&lt;/span&gt;&lt;/pre&gt;&lt;/div&gt;&lt;/pre&gt;&lt;/div&gt;" style="whiteSpace=wrap;html=1;fontColor=default;labelBackgroundColor=none;" vertex="1" parent="1"><mxGeometry x="-350" y="630" width="310" height="90" as="geometry"/></mxCell><mxCell id="18" style="edgeStyle=orthogonalEdgeStyle;rounded=0;orthogonalLoop=1;jettySize=auto;html=1;entryX=0;entryY=0.25;entryDx=0;entryDy=0;fontColor=default;labelBackgroundColor=none;" edge="1" parent="1" source="19" target="27"><mxGeometry relative="1" as="geometry"><Array as="points"><mxPoint x="-195" y="730"/><mxPoint x="15" y="730"/><mxPoint x="15" y="760"/></Array></mxGeometry></mxCell><mxCell id="19" value="&lt;div style=&quot;font-family: &amp;quot;JetBrains Mono&amp;quot;, monospace;&quot;&gt;&lt;pre&gt;&lt;div style=&quot;font-family: &amp;quot;JetBrains Mono&amp;quot;, monospace;&quot;&gt;&lt;pre&gt;&lt;span style=&quot;&quot;&gt;int &lt;/span&gt;bucketIndex = (&lt;span style=&quot;&quot;&gt;int&lt;/span&gt;) (arr[i] * n)&lt;span style=&quot;&quot;&gt;;&lt;br&gt;&lt;/span&gt;&lt;span style=&quot;&quot;&gt;    &lt;/span&gt;bucket[bucketIndex].add(arr[i])&lt;span style=&quot;&quot;&gt;;&lt;/span&gt;&lt;br&gt;&lt;/pre&gt;&lt;/div&gt;&lt;/pre&gt;&lt;/div&gt;" style="whiteSpace=wrap;html=1;fontColor=default;labelBackgroundColor=none;" vertex="1" parent="1"><mxGeometry x="-350" y="750" width="310" height="90" as="geometry"/></mxCell><mxCell id="20" style="edgeStyle=orthogonalEdgeStyle;rounded=0;orthogonalLoop=1;jettySize=auto;html=1;entryX=0;entryY=0.25;entryDx=0;entryDy=0;fontColor=default;labelBackgroundColor=none;" edge="1" parent="1" source="21" target="29"><mxGeometry relative="1" as="geometry"><Array as="points"><mxPoint x="-195" y="850"/><mxPoint x="15" y="850"/><mxPoint x="15" y="860"/></Array></mxGeometry></mxCell><mxCell id="21" value="&lt;div style=&quot;font-family: &amp;quot;JetBrains Mono&amp;quot;, monospace;&quot;&gt;&lt;pre&gt;&lt;div style=&quot;font-family: &amp;quot;JetBrains Mono&amp;quot;, monospace;&quot;&gt;&lt;pre&gt;Collections.&lt;span style=&quot;font-style:italic;&quot;&gt;sort&lt;/span&gt;((bucket[i]))&lt;span style=&quot;&quot;&gt;;&lt;/span&gt;&lt;br&gt;&lt;/pre&gt;&lt;/div&gt;&lt;/pre&gt;&lt;/div&gt;" style="whiteSpace=wrap;html=1;fontColor=default;labelBackgroundColor=none;" vertex="1" parent="1"><mxGeometry x="-350" y="860" width="310" height="90" as="geometry"/></mxCell><mxCell id="22" style="edgeStyle=orthogonalEdgeStyle;rounded=0;orthogonalLoop=1;jettySize=auto;html=1;entryX=0.5;entryY=0;entryDx=0;entryDy=0;fontColor=default;labelBackgroundColor=none;" edge="1" parent="1" source="24" target="27"><mxGeometry relative="1" as="geometry"/></mxCell><mxCell id="23" style="edgeStyle=orthogonalEdgeStyle;rounded=0;orthogonalLoop=1;jettySize=auto;html=1;entryX=1;entryY=0.5;entryDx=0;entryDy=0;fontColor=default;labelBackgroundColor=none;" edge="1" parent="1" source="24" target="17"><mxGeometry relative="1" as="geometry"/></mxCell><mxCell id="24" value="&lt;pre style=&quot;border-color: var(--border-color);&quot;&gt;int i = &lt;span style=&quot;border-color: var(--border-color);&quot;&gt;0&lt;/span&gt;&lt;span style=&quot;border-color: var(--border-color);&quot;&gt;;&lt;/span&gt;n&lt;span style=&quot;border-color: var(--border-color);&quot;&gt;;1&lt;/span&gt;&lt;/pre&gt;" style="shape=hexagon;perimeter=hexagonPerimeter2;whiteSpace=wrap;html=1;fixedSize=1;fontColor=default;labelBackgroundColor=none;" vertex="1" parent="1"><mxGeometry x="70" y="640" width="110" height="70" as="geometry"/></mxCell><mxCell id="25" style="edgeStyle=orthogonalEdgeStyle;rounded=0;orthogonalLoop=1;jettySize=auto;html=1;entryX=0.5;entryY=0;entryDx=0;entryDy=0;fontColor=default;labelBackgroundColor=none;" edge="1" parent="1" source="27" target="29"><mxGeometry relative="1" as="geometry"/></mxCell><mxCell id="26" style="edgeStyle=orthogonalEdgeStyle;rounded=0;orthogonalLoop=1;jettySize=auto;html=1;entryX=1;entryY=0.5;entryDx=0;entryDy=0;fontColor=default;labelBackgroundColor=none;" edge="1" parent="1" source="27" target="19"><mxGeometry relative="1" as="geometry"/></mxCell><mxCell id="27" value="&lt;pre style=&quot;border-color: var(--border-color);&quot;&gt;int i = &lt;span style=&quot;border-color: var(--border-color);&quot;&gt;0&lt;/span&gt;&lt;span style=&quot;border-color: var(--border-color);&quot;&gt;;&lt;/span&gt;n&lt;span style=&quot;border-color: var(--border-color);&quot;&gt;;1&lt;/span&gt;&lt;/pre&gt;" style="shape=hexagon;perimeter=hexagonPerimeter2;whiteSpace=wrap;html=1;fixedSize=1;fontColor=default;labelBackgroundColor=none;" vertex="1" parent="1"><mxGeometry x="70" y="740" width="110" height="70" as="geometry"/></mxCell><mxCell id="28" style="edgeStyle=orthogonalEdgeStyle;rounded=0;orthogonalLoop=1;jettySize=auto;html=1;entryX=1;entryY=0.5;entryDx=0;entryDy=0;fontColor=default;labelBackgroundColor=none;" edge="1" parent="1" source="29" target="21"><mxGeometry relative="1" as="geometry"/></mxCell><mxCell id="29" value="&lt;pre style=&quot;border-color: var(--border-color);&quot;&gt;int i = &lt;span style=&quot;border-color: var(--border-color);&quot;&gt;0&lt;/span&gt;&lt;span style=&quot;border-color: var(--border-color);&quot;&gt;;&lt;/span&gt;n&lt;span style=&quot;border-color: var(--border-color);&quot;&gt;;1&lt;/span&gt;&lt;/pre&gt;" style="shape=hexagon;perimeter=hexagonPerimeter2;whiteSpace=wrap;html=1;fixedSize=1;fontColor=default;labelBackgroundColor=none;" vertex="1" parent="1"><mxGeometry x="70" y="840" width="110" height="70" as="geometry"/></mxCell><mxCell id="30" style="edgeStyle=orthogonalEdgeStyle;rounded=0;orthogonalLoop=1;jettySize=auto;html=1;entryX=0.5;entryY=0;entryDx=0;entryDy=0;fontColor=default;labelBackgroundColor=none;" edge="1" parent="1" source="31" target="36"><mxGeometry relative="1" as="geometry"/></mxCell><mxCell id="31" value="&lt;div style=&quot;font-family: &amp;quot;JetBrains Mono&amp;quot;, monospace;&quot;&gt;&lt;pre&gt;int index = &lt;span style=&quot;&quot;&gt;0&lt;/span&gt;&lt;span style=&quot;&quot;&gt;;&lt;/span&gt;&lt;/pre&gt;&lt;/div&gt;" style="rounded=0;whiteSpace=wrap;html=1;fontColor=default;labelBackgroundColor=none;" vertex="1" parent="1"><mxGeometry x="60" y="960" width="120" height="60" as="geometry"/></mxCell><mxCell id="32" style="edgeStyle=orthogonalEdgeStyle;rounded=0;orthogonalLoop=1;jettySize=auto;html=1;entryX=0;entryY=0.25;entryDx=0;entryDy=0;exitX=0.5;exitY=0;exitDx=0;exitDy=0;fontColor=default;labelBackgroundColor=none;" edge="1" parent="1" source="33" target="39"><mxGeometry relative="1" as="geometry"><Array as="points"><mxPoint x="-245" y="1150"/><mxPoint x="-45" y="1150"/></Array></mxGeometry></mxCell><mxCell id="33" value="&lt;div style=&quot;font-family: &amp;quot;JetBrains Mono&amp;quot;, monospace;&quot;&gt;&lt;pre&gt;&lt;div style=&quot;font-family: &amp;quot;JetBrains Mono&amp;quot;, monospace;&quot;&gt;&lt;pre&gt;&lt;div style=&quot;font-family: &amp;quot;JetBrains Mono&amp;quot;, monospace;&quot;&gt;&lt;pre&gt; arr[index++] = bucket[i].get(j)&lt;span style=&quot;&quot;&gt;;&lt;/span&gt;&lt;br&gt;&lt;/pre&gt;&lt;/div&gt;&lt;/pre&gt;&lt;/div&gt;&lt;/pre&gt;&lt;/div&gt;" style="whiteSpace=wrap;html=1;fontColor=default;labelBackgroundColor=none;" vertex="1" parent="1"><mxGeometry x="-380" y="1190" width="270" height="90" as="geometry"/></mxCell><mxCell id="34" style="edgeStyle=orthogonalEdgeStyle;rounded=0;orthogonalLoop=1;jettySize=auto;html=1;entryX=0.5;entryY=0;entryDx=0;entryDy=0;fontColor=default;labelBackgroundColor=none;" edge="1" parent="1" source="36" target="39"><mxGeometry relative="1" as="geometry"/></mxCell><mxCell id="35" style="edgeStyle=orthogonalEdgeStyle;rounded=0;orthogonalLoop=1;jettySize=auto;html=1;exitX=1;exitY=0.25;exitDx=0;exitDy=0;entryX=1;entryY=0.5;entryDx=0;entryDy=0;fontColor=default;labelBackgroundColor=none;" edge="1" parent="1" source="36" target="6"><mxGeometry relative="1" as="geometry"><Array as="points"><mxPoint x="400" y="1090"/><mxPoint x="400" y="1390"/></Array></mxGeometry></mxCell><mxCell id="36" value="&lt;pre style=&quot;border-color: var(--border-color);&quot;&gt;int i = &lt;span style=&quot;border-color: var(--border-color);&quot;&gt;0&lt;/span&gt;&lt;span style=&quot;border-color: var(--border-color);&quot;&gt;;&lt;/span&gt;n&lt;span style=&quot;border-color: var(--border-color);&quot;&gt;;1&lt;/span&gt;&lt;/pre&gt;" style="shape=hexagon;perimeter=hexagonPerimeter2;whiteSpace=wrap;html=1;fixedSize=1;fontColor=default;labelBackgroundColor=none;" vertex="1" parent="1"><mxGeometry x="65" y="1070" width="110" height="70" as="geometry"/></mxCell><mxCell id="37" style="edgeStyle=orthogonalEdgeStyle;rounded=0;orthogonalLoop=1;jettySize=auto;html=1;entryX=1;entryY=0.5;entryDx=0;entryDy=0;fontColor=default;labelBackgroundColor=none;" edge="1" parent="1" source="39" target="33"><mxGeometry relative="1" as="geometry"/></mxCell><mxCell id="38" style="edgeStyle=orthogonalEdgeStyle;rounded=0;orthogonalLoop=1;jettySize=auto;html=1;entryX=1;entryY=0.5;entryDx=0;entryDy=0;exitX=1;exitY=0.5;exitDx=0;exitDy=0;fontColor=default;labelBackgroundColor=none;" edge="1" parent="1" source="39" target="36"><mxGeometry relative="1" as="geometry"/></mxCell><mxCell id="39" value="&lt;pre style=&quot;border-color: var(--border-color);&quot;&gt;&lt;pre style=&quot;border-color: var(--border-color);&quot;&gt;int j = &lt;span style=&quot;border-color: var(--border-color);&quot;&gt;0&lt;/span&gt;&lt;span style=&quot;border-color: var(--border-color);&quot;&gt;, &lt;/span&gt;size = bucket[i].size()&lt;span style=&quot;border-color: var(--border-color);&quot;&gt;;&lt;/span&gt;size&lt;span style=&quot;border-color: var(--border-color);&quot;&gt;;1&lt;/span&gt;&lt;/pre&gt;&lt;/pre&gt;" style="shape=hexagon;perimeter=hexagonPerimeter2;whiteSpace=wrap;html=1;fixedSize=1;fontColor=default;labelBackgroundColor=none;" vertex="1" parent="1"><mxGeometry x="-35" y="1185" width="350" height="100" as="geometry"/></mxCell><mxCell id="40" style="edgeStyle=orthogonalEdgeStyle;rounded=0;orthogonalLoop=1;jettySize=auto;html=1;entryX=0.542;entryY=-0.041;entryDx=0;entryDy=0;entryPerimeter=0;fontColor=default;labelBackgroundColor=none;" edge="1" parent="1" source="29" target="31"><mxGeometry relative="1" as="geometry"/></mxCell><mxCell id="41" value="Так" style="text;html=1;align=center;verticalAlign=middle;resizable=0;points=[];autosize=1;strokeColor=none;fillColor=none;fontColor=default;labelBackgroundColor=none;" vertex="1" parent="1"><mxGeometry y="380" width="40" height="30" as="geometry"/></mxCell><mxCell id="42" value="Ні" style="text;html=1;align=center;verticalAlign=middle;resizable=0;points=[];autosize=1;strokeColor=none;fillColor=none;fontColor=default;labelBackgroundColor=none;" vertex="1" parent="1"><mxGeometry x="120" y="465" width="30" height="30" as="geometry"/></mxCell><mxCell id="43" value="Так" style="text;html=1;align=center;verticalAlign=middle;resizable=0;points=[];autosize=1;strokeColor=none;fillColor=none;fontColor=default;labelBackgroundColor=none;" vertex="1" parent="1"><mxGeometry x="40" y="670" width="40" height="30" as="geometry"/></mxCell><mxCell id="44" value="Так" style="text;html=1;align=center;verticalAlign=middle;resizable=0;points=[];autosize=1;strokeColor=none;fillColor=none;fontColor=default;labelBackgroundColor=none;" vertex="1" parent="1"><mxGeometry x="40" y="770" width="40" height="30" as="geometry"/></mxCell><mxCell id="45" value="Так" style="text;html=1;align=center;verticalAlign=middle;resizable=0;points=[];autosize=1;strokeColor=none;fillColor=none;fontColor=default;labelBackgroundColor=none;" vertex="1" parent="1"><mxGeometry x="40" y="870" width="40" height="30" as="geometry"/></mxCell><mxCell id="46" value="Ні" style="text;html=1;align=center;verticalAlign=middle;resizable=0;points=[];autosize=1;strokeColor=none;fillColor=none;fontColor=default;labelBackgroundColor=none;" vertex="1" parent="1"><mxGeometry x="120" y="710" width="30" height="30" as="geometry"/></mxCell><mxCell id="47" value="Ні" style="text;html=1;align=center;verticalAlign=middle;resizable=0;points=[];autosize=1;strokeColor=none;fillColor=none;fontColor=default;labelBackgroundColor=none;" vertex="1" parent="1"><mxGeometry x="125" y="810" width="30" height="30" as="geometry"/></mxCell><mxCell id="48" value="Ні" style="text;html=1;align=center;verticalAlign=middle;resizable=0;points=[];autosize=1;strokeColor=none;fillColor=none;fontColor=default;labelBackgroundColor=none;" vertex="1" parent="1"><mxGeometry x="125" y="910" width="30" height="30" as="geometry"/></mxCell><mxCell id="49" value="Так" style="text;html=1;align=center;verticalAlign=middle;resizable=0;points=[];autosize=1;strokeColor=none;fillColor=none;fontColor=default;labelBackgroundColor=none;" vertex="1" parent="1"><mxGeometry x="85" y="1140" width="40" height="30" as="geometry"/></mxCell><mxCell id="50" value="Так" style="text;html=1;align=center;verticalAlign=middle;resizable=0;points=[];autosize=1;strokeColor=none;fillColor=none;fontColor=default;labelBackgroundColor=none;" vertex="1" parent="1"><mxGeometry x="-60" y="1240" width="40" height="30" as="geometry"/></mxCell><mxCell id="51" value="Ні" style="text;html=1;align=center;verticalAlign=middle;resizable=0;points=[];autosize=1;strokeColor=none;fillColor=none;fontColor=default;labelBackgroundColor=none;" vertex="1" parent="1"><mxGeometry x="310" y="1230" width="30" height="30" as="geometry"/></mxCell><mxCell id="52" value="Ні" style="text;html=1;align=center;verticalAlign=middle;resizable=0;points=[];autosize=1;strokeColor=none;fillColor=none;fontColor=default;labelBackgroundColor=none;" vertex="1" parent="1"><mxGeometry x="155" y="1060" width="30" height="30" as="geometry"/></mxCell></root></mxGraphModel></diagram></mxfile>